<svg id="visual" viewBox="0 0 320 200" width="320" height="200" xmlns="http://www.w3.org/2000/svg" xmlns:xlink="http://www.w3.org/1999/xlink" version="1.1"><rect x="0" y="0" width="320" height="200" fill="#ECECEC"></rect><path d="M241 200L250 200L250 178L243 178L243 156L232 156L232 133L249 133L249 111L232 111L232 89L232 89L232 67L245 67L245 44L250 44L250 22L240 22L240 0L320 0L320 22L320 22L320 44L320 44L320 67L320 67L320 89L320 89L320 111L320 111L320 133L320 133L320 156L320 156L320 178L320 178L320 200L320 200Z" fill="#247dd3"></path><path d="M267 200L272 200L272 178L263 178L263 156L260 156L260 133L264 133L264 111L266 111L266 89L261 89L261 67L273 67L273 44L272 44L272 22L260 22L260 0L320 0L320 22L320 22L320 44L320 44L320 67L320 67L320 89L320 89L320 111L320 111L320 133L320 133L320 156L320 156L320 178L320 178L320 200L320 200Z" fill="#1871cb"></path><path d="M292 200L293 200L293 178L288 178L288 156L284 156L284 133L294 133L294 111L293 111L293 89L284 89L284 67L290 67L290 44L292 44L292 22L295 22L295 0L320 0L320 22L320 22L320 44L320 44L320 67L320 67L320 89L320 89L320 111L320 111L320 133L320 133L320 156L320 156L320 178L320 178L320 200L320 200Z" fill="#0966c2"></path></svg>