<?xml version="1.0" encoding="UTF-8" standalone="no"?>
<!DOCTYPE svg PUBLIC "-//W3C//DTD SVG 1.1//EN" "http://www.w3.org/Graphics/SVG/1.1/DTD/svg11.dtd">
<!-- Created with Vectornator (http://vectornator.io/) -->
<svg height="100%" stroke-miterlimit="10" style="fill-rule:nonzero;clip-rule:evenodd;stroke-linecap:round;stroke-linejoin:round;" version="1.1" viewBox="0 0 900 600" width="100%" xml:space="preserve" xmlns="http://www.w3.org/2000/svg" xmlns:xlink="http://www.w3.org/1999/xlink">
<defs/>
<g id="レイヤー-1">
<path d="M62.6233 123.74C72.8061 114.194 77.7184 107.369 85.4218 97.119C88.095 93.5623 90.7767 90.1622 93.4213 86.6206C93.7281 86.2097 96.2546 82.5277 97.021 83.2462C97.9685 84.1344 97.021 90.2531 97.021 91.1199C97.021 97.1524 97.8538 103.124 98.6209 109.117C102.294 137.81 103.756 164.476 96.2211 192.729C95.0859 196.986 90.1601 219.081 82.622 216.725C76.7657 214.895 77.8223 197.773 77.8223 193.479C77.8223 180.751 87.0817 164.08 97.021 155.61C106.241 147.753 117.05 141.449 124.619 131.989C129.734 125.596 136.266 116.835 138.618 109.117C139.4 106.552 140.618 103.21 140.618 100.493C140.618 99.4936 140.618 98.4938 140.618 97.4939C140.618 97.244 140.618 96.4941 140.618 96.7441C140.618 107.69 136.09 118.342 133.819 128.989C130.564 144.243 127.419 159.496 127.419 175.107C127.419 185.313 130.721 198.548 141.018 203.977C147.713 207.508 153.934 203.665 159.017 199.853C171.18 190.732 180.784 178.061 188.215 165.358C191.305 160.076 193.753 154.6 196.615 149.236C196.702 149.073 198.621 145.486 197.814 145.486C197.128 145.486 197.414 150.113 197.414 150.361C197.414 155.525 196.811 160.583 196.615 165.733C196.055 180.431 202.802 196.479 221.013 196.479C224.77 196.479 229.129 195.384 231.812 192.729C235.268 189.31 236.238 187.439 238.612 183.731" fill="none" opacity="1" stroke="#000000" stroke-linecap="round" stroke-linejoin="round" stroke-width="11.3935"/>
<path d="M201.14 111.567C199.808 112.232 200.542 111.821 198.975 112.865" fill="none" opacity="1" stroke="#000000" stroke-linecap="round" stroke-linejoin="round" stroke-width="14.2516"/>
<path d="M49.2029 355.998C61.9888 352.162 70.7206 343.948 79.94 335.651C80.4523 335.19 80.8058 341.664 80.8058 341.712C80.8058 345.568 81.0952 349.525 81.2387 353.4C81.6076 363.361 82.6856 373.305 82.9704 383.272C83.7314 409.907 85.0927 435.479 75.6108 460.764C73.8984 465.33 72.822 473.606 68.2512 476.349C65.3634 478.081 63.1247 472.18 62.6233 470.721C59.8137 462.547 58.9481 459.936 59.16 451.673C59.5692 435.714 69.2092 426.807 80.3729 417.039" fill="none" opacity="1" stroke="#000000" stroke-linecap="round" stroke-linejoin="round" stroke-width="11.6195"/>
<path d="M115.006 328.291C115.439 328.869 116.259 329.303 116.305 330.023C116.845 338.521 116.594 347.051 116.738 355.565" fill="none" opacity="1" stroke="#000000" stroke-linecap="round" stroke-linejoin="round" stroke-width="10.7289"/>
<path d="M113.275 410.978C113.707 410.978 114.248 411.265 114.573 410.978C120.394 405.85 126.031 400.505 131.457 394.96C132.689 393.702 133.328 391.957 134.487 390.631C135.153 389.871 134.732 392.682 134.487 393.662C134.104 395.194 133.501 396.862 133.189 398.424C132.195 403.391 131.676 408.544 131.457 413.576C131.029 423.425 128.006 432.788 127.561 442.581C127.522 443.424 127.839 459.898 127.128 459.898C126.334 459.898 126.695 453.838 126.695 453.837C127.987 448.024 131.116 441.354 133.189 435.655C136.368 426.91 144.95 398.857 155.7 398.857C159.316 398.857 160.856 405.469 161.328 407.948C163.232 417.94 162.436 428.82 160.462 438.685C159.671 442.641 158.731 446.302 158.731 450.374C158.731 451.681 158.615 455.538 158.298 454.27C157.129 449.593 161.073 441.311 162.194 437.386C165.409 426.133 174.049 403.1 188.602 401.887C192.293 401.58 191.632 410.952 191.632 413.576C191.632 423.355 191.982 433.237 191.632 443.014C191.584 444.372 189.408 457.854 191.632 453.404" fill="none" opacity="1" stroke="#000000" stroke-linecap="round" stroke-linejoin="round" stroke-width="11.1697"/>
<path d="M253.107 333.089C260.671 340.654 265.559 349.236 274.752 355.601C286.67 363.852 306.378 370.318 321.075 368.589C327.5 367.833 335.619 367.384 341.422 364.259C349.907 359.69 362.666 348.28 353.976 337.852C347.612 330.214 339.151 327.815 330.346 328.367C318.907 329.084 306.887 334.783 298.13 340.449C267.278 360.412 253.831 398.31 263.93 433.093C266.041 440.368 276.507 457.569 284.277 459.934C289.969 461.666 295.719 463.316 301.593 464.263C315.854 466.563 343.764 445.075 357.448 441.527" fill="none" opacity="1" stroke="#000000" stroke-linecap="round" stroke-linejoin="round" stroke-width="11.1697"/>
<path d="M397.363 408.122C394.323 405.082 388.763 407.338 384.475 407.644C379.434 408.005 375.444 412.204 371.11 414.804C362.094 420.214 351.432 444.885 361.564 452.991C376.706 465.104 392.998 444.47 396.886 431.511C398.428 426.371 399.949 421.045 400.704 415.759C401.064 413.239 400.704 408.122 400.704 408.122C400.704 408.122 400.45 409.728 400.227 410.508C399.244 413.948 399.183 417.519 398.795 421.01C397.885 429.205 395.419 447.457 406.432 450.604C412.637 452.377 419.813 445.811 423.139 441.535C429.516 433.335 440.314 404.541 452.256 405.735C458.268 406.336 459.562 414.516 461.325 419.1C465.552 430.091 462.38 444.137 456.074 453.945C450.681 462.334 442.467 465.864 439.368 453.468" fill="none" opacity="1" stroke="#000000" stroke-linecap="round" stroke-linejoin="round" stroke-width="11.1697"/>
<path d="M500.732 338.873C512.236 344.625 520.944 351.869 532.687 357.65C549.398 365.877 569.112 360.556 583.089 350.073C588.843 345.758 594.27 339.082 592.972 331.296C589.825 312.414 564.826 330 558.712 337.225C548.815 348.921 547.38 361.356 542.899 375.439C538.715 388.589 532.543 401.358 527.745 414.312C524.058 424.268 520.177 434.226 515.227 443.631C513.373 447.153 511.394 450.818 509.297 454.173C508.647 455.214 508.518 458.335 507.65 457.467C506.677 456.494 512.919 449.234 512.921 449.231C518.707 441.998 525.76 430.785 535.652 428.807C546.92 426.553 551.849 438.954 560.688 442.972C567.63 446.128 574.976 448.692 582.76 447.914C595.434 446.646 614.573 428.056 617.679 415.63C618.038 414.197 616.635 418.377 616.362 418.924C615.262 421.124 614.437 423.128 613.067 425.183C610.059 429.696 605.309 446.079 614.714 447.255C623.096 448.302 627.503 440.272 631.538 433.734" fill="none" opacity="1" stroke="#000000" stroke-linecap="round" stroke-linejoin="round" stroke-width="10.8934"/>
<path d="M632.504 433.089C636.865 428.728 641.311 419.618 644.693 413.982C645.446 412.726 646.535 409.176 647.328 408.382C648.263 407.447 647.821 411.023 647.657 412.335C647.387 414.499 647.244 416.717 646.999 418.924C646.357 424.697 646.01 431.325 646.01 437.042C646.01 439.201 645.681 441.386 645.681 443.631C645.681 444.07 645.681 444.949 645.681 444.949C645.681 444.949 646.343 441.151 646.999 439.348C647.916 436.827 648.783 434.324 649.634 431.772C652.455 423.308 660.81 410.967 670.388 409.37C673.828 408.797 675.728 413.704 675 416.618C674.074 420.321 672.66 424.397 672.035 428.148C670.454 437.637 674.206 451.494 685.871 440.996C687.955 439.12 689.202 437.213 690.813 435.066" fill="none" opacity="1" stroke="#000000" stroke-linecap="round" stroke-linejoin="round" stroke-width="11.1697"/>
<path d="M723.426 414.641C723.426 411.737 713.943 413.539 711.237 414.312C701.366 417.132 686.829 433.914 699.048 442.643C704.574 446.589 713.876 442.857 717.496 438.031C725.111 427.878 730.208 417.433 732.321 404.758C733.032 400.491 734.091 396.195 734.627 391.911C734.858 390.058 734.627 386.31 734.627 386.31C734.627 386.31 734.465 389.171 734.297 390.593C733.876 394.169 733.309 397.863 733.309 401.464C733.309 411.808 732.516 421.67 733.638 431.772C733.912 434.234 736.511 439.296 739.568 439.678C749.12 440.872 757.154 434.179 765.264 430.124C767.689 428.912 772.329 428.28 774.158 425.842C776.975 422.086 779.339 411.115 774.817 407.723C769.951 404.074 763.534 409.495 760.981 413.324C755.517 421.52 754.863 440.76 767.57 443.302C770.751 443.938 775.493 441.782 778.441 440.996C791.036 437.637 796.157 430.99 803.477 421.23C805.329 418.761 812.78 406.735 815.007 406.735C817.655 406.735 814.682 423.504 814.348 425.842C813.71 430.313 814.019 435.499 814.019 440.007C814.019 440.675 814.358 441.984 813.69 441.984C813.022 441.984 813.25 440.666 813.36 440.007C813.995 436.196 814.924 431.899 815.996 428.148C818.461 419.52 819.247 412.686 827.855 408.382C829.205 407.707 831.574 406.877 833.126 407.394C843.831 410.962 823.475 454.128 846.633 438.69C849.724 436.628 852.851 434.616 855.857 432.43" fill="none" opacity="1" stroke="#000000" stroke-linecap="round" stroke-linejoin="round" stroke-width="11.1697"/>
<path d="M272.767 185.688C273.097 186.018 273.703 186.213 273.755 186.676C274.484 193.129 274.634 199.634 275.073 206.113" fill="none" opacity="1" stroke="#000000" stroke-linecap="round" stroke-linejoin="round" stroke-width="11.1697"/>
<path d="M627.892 389.605C627.782 390.044 627.672 390.483 627.562 390.922" fill="none" opacity="1" stroke="#000000" stroke-linecap="round" stroke-linejoin="round" stroke-width="10.8934"/>
</g>
</svg>
