<svg id="visual" viewBox="0 0 1200 900" width="1200" height="900" xmlns="http://www.w3.org/2000/svg" xmlns:xlink="http://www.w3.org/1999/xlink" version="1.1"><rect x="0" y="0" width="1200" height="900" fill="#ECECEC"></rect><path d="M903 900L936 900L936 800L907 800L907 700L869 700L869 600L933 600L933 500L866 500L866 400L868 400L868 300L917 300L917 200L935 200L935 100L898 100L898 0L1200 0L1200 100L1200 100L1200 200L1200 200L1200 300L1200 300L1200 400L1200 400L1200 500L1200 500L1200 600L1200 600L1200 700L1200 700L1200 800L1200 800L1200 900L1200 900Z" fill="#247dd3"></path><path d="M1000 900L1016 900L1016 800L984 800L984 700L974 700L974 600L989 600L989 500L994 500L994 400L977 400L977 300L1020 300L1020 200L1015 200L1015 100L970 100L970 0L1200 0L1200 100L1200 100L1200 200L1200 200L1200 300L1200 300L1200 400L1200 400L1200 500L1200 500L1200 600L1200 600L1200 700L1200 700L1200 800L1200 800L1200 900L1200 900Z" fill="#1871cb"></path><path d="M1092 900L1094 900L1094 800L1078 800L1078 700L1064 700L1064 600L1099 600L1099 500L1098 500L1098 400L1062 400L1062 300L1085 300L1085 200L1093 200L1093 100L1103 100L1103 0L1200 0L1200 100L1200 100L1200 200L1200 200L1200 300L1200 300L1200 400L1200 400L1200 500L1200 500L1200 600L1200 600L1200 700L1200 700L1200 800L1200 800L1200 900L1200 900Z" fill="#0966c2"></path></svg>